# Vectary OBJ Export units=mm
mtllib Project Name.mtl
o 000_Polyhedron
g Polyhedron
usemtl Polyhedron material_aa4b63b3-9603-4312-959c-c5efae845dae
v -1.140 9.272 13.730
v -1.845 10.620 16.062
v 0.000 11.452 14.621
v 1.140 9.272 13.730
v 0.000 7.092 14.621
v -1.845 7.925 16.062
v 1.845 10.620 16.062
v 0.000 11.452 17.504
v -1.140 9.272 18.395
v 0.000 7.092 17.504
v 1.845 7.925 16.062
v 1.140 9.272 18.395
vn -0.61576 0.00000 -0.78793
vn -0.88613 0.46343 0.00000
vn 0.00000 0.86593 -0.50017
vn -0.61576 0.00000 -0.78793
vn 0.00000 0.86593 -0.50017
vn 0.61576 0.00000 -0.78793
vn -0.61576 0.00000 -0.78793
vn 0.61576 0.00000 -0.78793
vn 0.00000 -0.86593 -0.50017
vn -0.61576 0.00000 -0.78793
vn 0.00000 -0.86593 -0.50017
vn -0.88613 -0.46343 -0.00000
vn -0.61576 0.00000 -0.78793
vn -0.88613 -0.46343 -0.00000
vn -0.88613 0.46343 0.00000
vn 0.61576 0.00000 -0.78793
vn 0.00000 0.86593 -0.50017
vn 0.88613 0.46343 0.00000
vn 0.00000 0.86593 -0.50017
vn -0.88613 0.46343 0.00000
vn 0.00000 0.86593 0.50017
vn -0.88613 0.46343 0.00000
vn -0.88613 -0.46343 -0.00000
vn -0.61576 -0.00000 0.78793
vn -0.88613 -0.46343 -0.00000
vn 0.00000 -0.86593 -0.50017
vn 0.00000 -0.86593 0.50017
vn 0.00000 -0.86593 -0.50017
vn 0.61576 0.00000 -0.78793
vn 0.88613 -0.46343 -0.00000
vn 0.61576 -0.00000 0.78793
vn 0.88613 0.46343 0.00000
vn 0.00000 0.86593 0.50017
vn 0.61576 -0.00000 0.78793
vn 0.00000 0.86593 0.50017
vn -0.61576 -0.00000 0.78793
vn 0.61576 -0.00000 0.78793
vn -0.61576 -0.00000 0.78793
vn 0.00000 -0.86593 0.50017
vn 0.61576 -0.00000 0.78793
vn 0.00000 -0.86593 0.50017
vn 0.88613 -0.46343 -0.00000
vn 0.61576 -0.00000 0.78793
vn 0.88613 -0.46343 -0.00000
vn 0.88613 0.46343 0.00000
vn 0.00000 0.86593 0.50017
vn 0.88613 0.46343 0.00000
vn 0.00000 0.86593 -0.50017
vn -0.61576 -0.00000 0.78793
vn 0.00000 0.86593 0.50017
vn -0.88613 0.46343 0.00000
vn 0.00000 -0.86593 0.50017
vn -0.61576 -0.00000 0.78793
vn -0.88613 -0.46343 -0.00000
vn 0.88613 -0.46343 -0.00000
vn 0.00000 -0.86593 0.50017
vn 0.00000 -0.86593 -0.50017
vn 0.88613 0.46343 0.00000
vn 0.88613 -0.46343 -0.00000
vn 0.61576 0.00000 -0.78793
f 1//1 2//2 3//3 
f 1//4 3//5 4//6 
f 1//7 4//8 5//9 
f 1//10 5//11 6//12 
f 1//13 6//14 2//15 
f 4//16 3//17 7//18 
f 3//19 2//20 8//21 
f 2//22 6//23 9//24 
f 6//25 5//26 10//27 
f 5//28 4//29 11//30 
f 12//31 7//32 8//33 
f 12//34 8//35 9//36 
f 12//37 9//38 10//39 
f 12//40 10//41 11//42 
f 12//43 11//44 7//45 
f 8//46 7//47 3//48 
f 9//49 8//50 2//51 
f 10//52 9//53 6//54 
f 11//55 10//56 5//57 
f 7//58 11//59 4//60 
